<?xml version="1.0" standalone="no"?>
<!DOCTYPE svg PUBLIC "-//W3C//DTD SVG 20010904//EN"
 "http://www.w3.org/TR/2001/REC-SVG-20010904/DTD/svg10.dtd">
<svg version="1.0" xmlns="http://www.w3.org/2000/svg"
 width="512.000000pt" height="512.000000pt" viewBox="0 0 512.000000 512.000000"
 preserveAspectRatio="xMidYMid meet">
<metadata>
Created by potrace 1.14, written by Peter Selinger 2001-2017
</metadata>
<g transform="translate(0.000000,512.000000) scale(0.100000,-0.100000)"
fill="#000000" stroke="none">
<path d="M750 2565 l0 -1725 1810 0 1810 0 0 1725 0 1725 -1810 0 -1810 0 0
-1725z m3550 1535 l0 -120 -1740 0 -1740 0 0 120 0 120 1740 0 1740 0 0 -120z
m0 -1695 l0 -1495 -1740 0 -1740 0 0 1495 0 1495 1740 0 1740 0 0 -1495z"/>
<path d="M943 4139 c-31 -11 -40 -54 -18 -79 34 -38 95 -16 95 34 0 37 -39 59
-77 45z"/>
<path d="M1130 4130 c-11 -11 -20 -27 -20 -35 0 -21 36 -55 58 -55 24 0 52 31
52 58 0 21 -34 52 -57 52 -7 0 -22 -9 -33 -20z"/>
<path d="M1310 3204 c0 -3 77 -105 170 -225 107 -137 168 -224 164 -232 -7
-11 -115 -152 -271 -354 l-64 -83 35 0 c34 0 40 7 187 200 84 109 156 197 160
194 4 -2 76 -92 159 -199 l152 -195 69 0 c38 0 69 2 69 5 0 3 -84 112 -187
242 -102 131 -186 243 -186 248 0 6 66 97 146 202 81 106 147 195 147 198 0 3
-13 5 -29 5 -27 0 -44 -18 -162 -172 -73 -95 -135 -176 -139 -181 -3 -4 -69
74 -146 173 l-139 180 -67 0 c-38 0 -68 -3 -68 -6z"/>
<path d="M2230 3203 c0 -4 68 -129 150 -278 l150 -271 0 -172 0 -172 60 0 60
0 0 176 0 175 155 269 c85 147 155 271 155 275 0 3 -15 5 -32 3 -32 -3 -39
-13 -168 -235 -74 -128 -138 -232 -143 -230 -4 1 -64 106 -135 232 l-127 230
-62 3 c-35 2 -63 0 -63 -5z"/>
<path d="M3077 3203 c-4 -3 -7 -19 -7 -35 l0 -28 270 0 c149 0 270 -3 270 -6
0 -5 -492 -717 -547 -791 l-24 -33 390 0 391 0 0 35 0 35 -295 2 -296 3 281
407 c154 223 280 409 280 412 0 8 -705 7 -713 -1z"/>
<path d="M1732 1898 c-7 -7 -12 -20 -12 -29 0 -10 -6 -20 -12 -23 -10 -5 -10
-7 0 -12 8 -4 12 -29 12 -75 0 -39 4 -69 10 -69 6 0 10 30 10 69 0 62 2 69 23
76 l22 8 -22 4 c-13 2 -23 10 -23 17 0 8 10 21 23 29 21 15 21 16 2 16 -12 1
-26 -4 -33 -11z"/>
<path d="M1810 1895 c0 -9 5 -15 11 -13 6 2 11 8 11 13 0 5 -5 11 -11 13 -6 2
-11 -4 -11 -13z"/>
<path d="M2180 1895 c0 -9 5 -15 11 -13 6 2 11 8 11 13 0 5 -5 11 -11 13 -6 2
-11 -4 -11 -13z"/>
<path d="M2640 1800 c0 -67 4 -110 10 -110 6 0 10 7 10 17 0 15 1 15 18 0 29
-26 77 -22 101 9 42 53 11 134 -51 134 -17 0 -40 -7 -50 -17 -17 -15 -18 -14
-18 30 0 26 -4 47 -10 47 -6 0 -10 -43 -10 -110z m122 13 c39 -35 11 -103 -43
-103 -29 0 -59 31 -59 60 0 50 64 78 102 43z"/>
<path d="M3238 1904 c-12 -11 -10 -214 2 -214 6 0 10 14 10 30 0 17 4 30 8 30
5 0 21 -13 37 -30 41 -43 52 -37 16 7 -17 21 -31 41 -31 45 0 4 14 23 31 43
20 22 26 35 17 35 -8 0 -24 -13 -36 -30 -13 -16 -27 -30 -32 -30 -5 0 -10 27
-12 61 -2 33 -6 57 -10 53z"/>
<path d="M2080 1871 c0 -11 -6 -22 -12 -25 -10 -5 -10 -7 0 -12 7 -4 12 -27
12 -63 0 -59 11 -81 42 -81 24 0 23 16 -2 23 -17 4 -20 14 -20 61 0 49 2 56
20 56 11 0 20 5 20 10 0 6 -9 10 -20 10 -13 0 -20 7 -20 20 0 11 -4 20 -10 20
-5 0 -10 -9 -10 -19z"/>
<path d="M1140 1770 c0 -47 4 -80 10 -80 6 0 10 26 10 58 0 65 11 82 52 82 34
0 48 -28 48 -96 0 -26 5 -44 11 -44 8 0 10 22 7 66 -3 50 -9 70 -23 80 -23 17
-67 18 -83 2 -9 -9 -12 -9 -12 0 0 7 -4 12 -10 12 -6 0 -10 -33 -10 -80z"/>
<path d="M1342 1827 c-61 -65 8 -163 93 -131 25 10 47 62 40 95 -13 58 -92 80
-133 36z m106 -29 c20 -42 -2 -82 -48 -86 -52 -5 -78 46 -49 99 16 32 80 23
97 -13z"/>
<path d="M1520 1770 c0 -47 4 -80 10 -80 6 0 10 23 10 51 0 65 13 89 48 89 41
0 52 -17 52 -82 0 -32 4 -58 10 -58 6 0 10 28 10 63 0 49 -4 68 -18 80 -22 20
-73 22 -90 5 -9 -9 -12 -9 -12 0 0 7 -4 12 -10 12 -6 0 -10 -33 -10 -80z"/>
<path d="M1810 1770 c0 -47 4 -80 10 -80 6 0 10 33 10 80 0 47 -4 80 -10 80
-6 0 -10 -33 -10 -80z"/>
<path d="M1900 1830 c-13 -13 -20 -33 -20 -60 0 -51 27 -80 75 -80 38 0 91 40
65 48 -7 3 -17 -3 -22 -12 -11 -19 -68 -22 -86 -4 -7 7 -12 28 -12 48 0 20 5
41 12 48 18 18 75 15 86 -4 5 -9 15 -15 22 -12 10 3 8 10 -8 26 -29 29 -85 29
-112 2z"/>
<path d="M2180 1770 c0 -47 4 -80 10 -80 6 0 10 33 10 80 0 47 -4 80 -10 80
-6 0 -10 -33 -10 -80z"/>
<path d="M2272 1827 c-61 -65 8 -163 93 -131 25 10 47 62 40 95 -13 58 -92 80
-133 36z m106 -29 c20 -42 -2 -82 -48 -86 -52 -5 -78 46 -49 99 16 32 80 23
97 -13z"/>
<path d="M2450 1770 c0 -47 4 -80 10 -80 6 0 10 23 10 51 0 65 13 89 48 89 41
0 52 -17 52 -82 0 -32 4 -58 10 -58 6 0 10 28 10 63 0 49 -4 68 -18 80 -22 20
-73 22 -90 5 -9 -9 -12 -9 -12 0 0 7 -4 12 -10 12 -6 0 -10 -33 -10 -80z"/>
<path d="M2862 1827 c-61 -65 8 -163 93 -131 25 10 47 62 40 95 -13 58 -92 80
-133 36z m106 -29 c20 -42 -2 -82 -48 -86 -52 -5 -78 46 -49 99 16 32 80 23
97 -13z"/>
<path d="M3051 1824 c-43 -55 -11 -134 55 -134 45 0 84 37 84 80 0 72 -96 109
-139 54z m109 -26 c13 -25 13 -31 0 -55 -30 -53 -110 -34 -110 25 0 63 79 84
110 30z"/>
<path d="M3390 1836 c-23 -29 -8 -58 38 -74 31 -10 42 -19 40 -31 -4 -22 -58
-28 -70 -7 -5 9 -14 14 -19 10 -19 -11 23 -44 56 -44 68 0 73 54 8 85 -53 24
-59 55 -13 55 18 0 33 -6 36 -15 7 -16 24 -21 24 -6 0 35 -76 55 -100 27z"/>
<path d="M3586 1838 c4 -7 16 -25 26 -40 19 -28 19 -28 0 -55 -30 -44 -34 -53
-24 -53 6 0 19 14 30 31 l19 31 22 -31 c33 -46 46 -37 17 12 -22 38 -23 44
-10 62 26 34 35 55 25 55 -5 0 -18 -14 -29 -31 l-19 -31 -22 31 c-21 29 -50
45 -35 19z"/>
<path d="M3723 1838 c3 -7 17 -44 32 -81 23 -57 26 -72 16 -93 -13 -30 -15
-62 -2 -49 19 20 99 235 88 235 -7 0 -23 -30 -36 -67 l-25 -68 -17 40 c-10 22
-23 52 -28 68 -6 15 -15 27 -22 27 -6 0 -9 -6 -6 -12z"/>
<path d="M3890 1840 c0 -5 18 -10 40 -10 l41 0 -41 -59 c-22 -33 -40 -65 -40
-70 0 -7 23 -11 56 -11 34 0 53 4 49 10 -3 6 -22 10 -41 10 -19 0 -34 2 -34 5
0 3 16 29 35 58 47 70 46 77 -15 77 -27 0 -50 -4 -50 -10z"/>
<path d="M3530 1705 c0 -8 5 -15 10 -15 6 0 10 7 10 15 0 8 -4 15 -10 15 -5 0
-10 -7 -10 -15z"/>
</g>
</svg>
