<?xml version="1.0" standalone="no"?>
<!DOCTYPE svg PUBLIC "-//W3C//DTD SVG 20010904//EN"
 "http://www.w3.org/TR/2001/REC-SVG-20010904/DTD/svg10.dtd">
<svg version="1.0" xmlns="http://www.w3.org/2000/svg"
 width="512.000000pt" height="512.000000pt" viewBox="0 0 512.000000 512.000000"
 preserveAspectRatio="xMidYMid meet">
<metadata>
Created by potrace 1.14, written by Peter Selinger 2001-2017
</metadata>
<g transform="translate(0.000000,512.000000) scale(0.100000,-0.100000)"
fill="#000000" stroke="none">
<path d="M2950 2580 l0 -160 24 0 c13 0 26 5 28 10 2 7 16 6 40 -4 62 -26 126
0 149 61 39 104 -59 194 -163 148 -16 -6 -18 -1 -18 49 0 56 0 56 -30 56 l-30
0 0 -160z m170 -5 c18 -22 15 -62 -5 -85 -50 -55 -131 14 -90 76 18 28 75 33
95 9z"/>
<path d="M3897 2734 c-4 -4 -7 -76 -7 -161 l0 -153 35 0 c35 0 35 0 35 45 0
33 4 45 15 45 8 0 26 -20 41 -45 23 -39 30 -45 60 -45 19 0 34 3 34 8 0 4 -13
27 -28 51 l-28 44 23 45 c31 62 30 72 -11 72 -30 0 -35 -4 -41 -30 -6 -28 -30
-50 -54 -50 -6 0 -11 36 -13 88 -3 85 -4 87 -28 90 -14 2 -29 0 -33 -4z"/>
<path d="M865 2706 c-64 -29 -115 -110 -115 -184 0 -21 12 -61 26 -89 32 -65
99 -104 178 -102 79 2 100 10 104 43 3 25 1 28 -15 21 -41 -17 -127 -16 -163
2 -93 48 -97 199 -7 253 66 41 171 19 212 -44 26 -39 31 -99 10 -116 -15 -12
-19 -12 -31 5 -8 10 -14 41 -14 67 0 46 -1 48 -27 48 -16 0 -46 3 -68 6 -56 8
-95 -27 -95 -84 0 -75 67 -120 130 -89 26 14 34 14 59 1 21 -10 36 -12 54 -5
95 36 64 207 -45 260 -51 24 -146 28 -193 7z m123 -148 c7 -7 12 -21 12 -33 0
-12 -5 -26 -12 -33 -28 -28 -78 -7 -78 33 0 12 5 26 12 33 7 7 21 12 33 12 12
0 26 -5 33 -12z"/>
<path d="M2366 2678 c-3 -24 -7 -60 -9 -80 l-3 -38 56 0 c87 0 128 -41 76 -75
-19 -13 -29 -14 -45 -5 -12 6 -21 15 -21 20 0 6 -16 10 -35 10 -41 0 -45 -15
-15 -53 62 -78 200 -41 200 54 0 58 -33 90 -98 97 -53 5 -57 8 -46 36 5 12 21
16 70 16 l64 0 0 30 0 30 -94 0 -95 0 -5 -42z"/>
<path d="M2687 2709 c-17 -10 -47 -59 -47 -79 0 -5 16 -10 35 -10 24 0 35 5
35 15 0 22 36 38 60 25 39 -21 25 -54 -55 -126 -53 -47 -75 -74 -75 -91 0 -23
1 -23 110 -23 l110 0 0 30 c0 30 0 30 -56 30 l-57 0 46 40 c72 64 84 137 30
180 -28 22 -105 27 -136 9z"/>
<path d="M2166 2675 c-4 -15 -16 -27 -31 -31 -32 -8 -36 -54 -5 -54 16 0 20
-7 20 -37 0 -93 31 -133 100 -133 26 0 30 4 30 29 0 25 -4 30 -27 33 -26 3
-28 7 -31 56 l-3 52 30 0 c26 0 31 4 31 25 0 21 -5 25 -30 25 -27 0 -30 3 -30
30 0 25 -4 30 -24 30 -17 0 -26 -7 -30 -25z"/>
<path d="M1312 2634 c-12 -8 -22 -10 -22 -5 0 6 -11 11 -25 11 l-25 0 0 -110
0 -110 30 0 30 0 0 66 c0 81 11 104 51 104 37 0 49 -27 49 -111 0 -59 0 -59
30 -59 l30 0 0 86 c0 81 -1 87 -29 115 -34 33 -83 39 -119 13z"/>
<path d="M1593 2634 c-34 -17 -63 -66 -63 -107 0 -39 41 -91 84 -105 50 -16
107 -1 136 36 l22 27 -32 3 c-18 2 -37 -1 -43 -7 -24 -24 -97 -7 -97 21 0 4
38 8 84 8 47 0 87 4 90 8 10 16 -14 78 -38 101 -32 30 -100 37 -143 15z m95
-50 c35 -24 26 -34 -33 -34 -30 0 -55 4 -55 9 0 12 40 41 55 41 6 0 21 -7 33
-16z"/>
<path d="M3324 2636 c-42 -19 -64 -53 -64 -99 0 -77 50 -123 132 -121 49 2 86
27 105 71 42 102 -68 197 -173 149z m100 -62 c35 -34 8 -104 -41 -104 -27 0
-63 33 -63 58 0 52 68 82 104 46z"/>
<path d="M3634 2636 c-42 -19 -64 -53 -64 -99 0 -77 50 -123 132 -121 49 2 86
27 105 71 42 102 -68 197 -173 149z m100 -62 c35 -34 8 -104 -41 -104 -27 0
-63 33 -63 58 0 52 68 82 104 46z"/>
<path d="M4212 2640 c-12 -5 -27 -21 -34 -35 -17 -37 15 -76 76 -93 28 -8 46
-19 46 -28 0 -23 -28 -28 -55 -10 -30 19 -75 21 -75 3 0 -8 11 -24 25 -37 20
-19 36 -24 74 -23 59 1 89 16 97 48 10 39 -18 72 -73 87 -54 15 -74 48 -29 48
14 0 28 -4 31 -10 10 -16 65 -12 65 4 0 42 -89 69 -148 46z"/>
<path d="M1840 2633 c0 -5 16 -28 34 -53 l34 -44 -39 -58 -40 -58 38 0 c32 0
42 5 56 30 10 17 21 30 25 30 4 0 16 -13 25 -30 15 -25 24 -30 57 -30 l39 0
-39 56 c-43 61 -43 61 5 124 l26 35 -33 3 c-26 3 -37 -2 -58 -28 l-25 -31 -18
31 c-15 24 -25 30 -53 30 -19 0 -34 -3 -34 -7z"/>
</g>
</svg>
